<?xml version="1.0" standalone="no"?>
<!DOCTYPE svg PUBLIC "-//W3C//DTD SVG 20010904//EN"
 "http://www.w3.org/TR/2001/REC-SVG-20010904/DTD/svg10.dtd">
<svg version="1.0" xmlns="http://www.w3.org/2000/svg"
 width="275.000000pt" height="61.000000pt" viewBox="0 0 275.000000 61.000000"
 preserveAspectRatio="xMidYMid meet">

<g transform="translate(0.000000,61.000000) scale(0.100000,-0.100000)"
fill="#000000" stroke="none">
<path d="M608 434 c-15 -8 -34 -27 -42 -42 -18 -35 -49 -189 -41 -202 10 -17
32 -11 62 16 l28 25 -28 -17 c-15 -9 -30 -14 -33 -12 -7 7 32 182 46 209 9 16
19 20 41 17 17 -3 34 1 40 9 16 19 -37 17 -73 -3z"/>
<path d="M886 429 c-14 -11 -33 -33 -40 -47 -12 -23 -46 -167 -46 -193 0 -15
70 -10 100 8 31 18 70 80 70 111 0 26 -24 45 -49 37 -11 -3 -32 -20 -47 -38
l-27 -32 7 40 c13 76 27 105 51 111 13 3 28 3 33 0 5 -3 15 1 22 9 20 24 -42
19 -74 -6z m46 -140 c-3 -42 -32 -83 -62 -87 -51 -8 -44 38 14 101 33 36 52
30 48 -14z"/>
<path d="M1767 430 c-37 -29 -52 -61 -71 -154 -19 -94 -19 -96 -3 -96 7 0 18
19 24 43 12 42 62 107 84 107 8 0 9 -13 3 -47 -12 -78 -11 -97 8 -101 10 -2
28 4 40 13 l23 16 -28 -7 c-28 -7 -28 -6 -21 32 23 111 0 142 -61 81 -38 -38
-40 -35 -24 33 13 57 35 82 70 78 34 -4 39 16 6 20 -13 2 -35 -7 -50 -18z"/>
<path d="M162 390 c-72 -44 -97 -149 -46 -189 30 -23 65 -26 113 -10 42 15 40
30 -3 17 -72 -22 -115 15 -101 88 15 80 112 135 148 84 14 -21 15 -21 20 -1 9
37 -77 44 -131 11z"/>
<path d="M1179 389 c-47 -28 -69 -66 -69 -123 0 -67 26 -90 93 -82 28 3 57 12
65 20 12 12 8 12 -28 3 -60 -16 -94 4 -98 58 -3 50 33 116 69 129 35 12 79 0
79 -21 0 -13 3 -14 11 -6 42 42 -58 59 -122 22z"/>
<path d="M368 335 c-62 -34 -92 -146 -40 -153 15 -2 34 8 57 31 l35 35 -3 -32
c-2 -25 2 -32 19 -34 11 -2 32 7 45 18 23 20 23 21 1 10 -35 -17 -41 -5 -26
62 7 35 13 66 14 71 0 13 -74 7 -102 -8z m65 -11 c11 -11 -14 -61 -48 -94 -27
-26 -38 -31 -47 -22 -14 14 4 82 28 107 15 15 55 21 67 9z"/>
<path d="M665 317 c-28 -28 -35 -43 -35 -75 0 -23 6 -45 15 -52 18 -15 72 -7
101 15 17 13 15 13 -18 3 -43 -13 -68 -6 -68 20 0 14 9 21 30 25 66 14 95 88
37 95 -21 3 -36 -5 -62 -31z m65 -6 c0 -20 -35 -51 -57 -51 -20 0 -16 27 7 50
25 25 50 26 50 1z"/>
<path d="M1418 340 c18 -8 22 -17 22 -53 0 -72 -55 -125 -80 -78 -15 28 -12
52 8 93 17 33 18 35 2 25 -45 -27 -64 -102 -34 -131 36 -37 112 2 134 70 15
46 -7 84 -48 83 -26 0 -26 -1 -4 -9z"/>
<path d="M1544 316 c-27 -27 -34 -42 -34 -74 0 -23 6 -45 15 -52 18 -15 72 -7
101 15 17 13 15 13 -18 3 -52 -16 -68 -6 -68 40 0 65 68 125 87 76 5 -13 7
-13 14 -2 15 23 10 28 -27 28 -28 0 -44 -8 -70 -34z"/>
<path d="M1903 333 c-13 -8 -23 -20 -23 -26 0 -5 8 -3 18 6 10 10 22 17 27 17
7 0 3 -50 -11 -117 -5 -26 -3 -33 9 -33 9 0 17 13 21 33 8 41 59 105 88 109
26 4 37 28 13 28 -10 0 -33 -16 -51 -36 l-34 -35 0 35 c0 41 -18 47 -57 19z"/>
<path d="M2138 335 c-62 -34 -92 -146 -40 -153 15 -2 34 8 57 31 l35 35 -3
-32 c-2 -25 2 -32 19 -34 11 -2 32 7 45 18 23 20 23 21 1 10 -35 -17 -41 -5
-26 62 7 35 13 66 14 71 0 13 -74 7 -102 -8z m65 -11 c11 -11 -14 -61 -48 -94
-27 -26 -38 -31 -47 -22 -14 14 4 82 28 107 15 15 55 21 67 9z"/>
<path d="M2298 336 c-24 -18 -23 -29 2 -14 29 19 32 6 15 -66 -18 -81 -18 -76
0 -76 8 0 19 16 25 38 11 44 71 119 87 109 7 -5 8 -19 2 -44 -15 -65 -12 -103
9 -103 11 0 27 10 38 22 14 17 15 20 2 9 -26 -20 -37 -6 -27 36 14 61 11 103
-7 103 -26 0 -54 -20 -74 -53 l-20 -32 3 40 c2 33 -1 40 -18 42 -11 2 -28 -3
-37 -11z"/>
<path d="M2555 317 c-28 -28 -35 -43 -35 -75 0 -23 6 -45 15 -52 18 -15 72 -7
101 15 17 13 15 13 -18 3 -43 -13 -68 -6 -68 20 0 14 9 21 30 25 66 14 95 88
37 95 -21 3 -36 -5 -62 -31z m65 -6 c0 -20 -35 -51 -57 -51 -20 0 -16 27 7 50
25 25 50 26 50 1z"/>
</g>
</svg>
